# xmcd
#
# Track frame offsets:
# 150
# 13182
# 31322
# 55430
# 69712
# 84305
# 98077
# 117875
# 133632
# 159095
# 173672
# 184982
# 203512
# 223102
# 240025
#
# Disc length: 3433 seconds
#
#
# Revision: 3
# Processed by: cddbd v1.4PL0 Copyright (c) Steve Scherf et al.
# Submitted via: FreeRIP 2.00 
#
DISCID=bf0d670f
DTITLE=Lenny LeBlanc/Vineyard Music/Terry Clark/Randy Rothwell/Marty Nystrom/Kingsway Music/Bob Fitts - The best loved worship and praise songs
DYEAR=1900
DGENRE=Gospel
TTITLE0=There is none like You
TTITLE1=I just want praise You
TTITLE2=Isn't He
TTITLE3=Hosanna
TTITLE4=Lord I lift your name on high
TTITLE5=Blessed be the Lord God Almighty
TTITLE6=Change my heart oh God/Spirit song
TTITLE7=Alleluia
TTITLE8=Shout to the Lord
TTITLE9=Give thanks
TTITLE10=My delight
TTITLE11=Refiner's fire
TTITLE12=As the deer
TTITLE13=We bring the sacrifice of praise
TTITLE14=It's your blood
EXTD=ID3G: 38
EXTT0=
EXTT1=
EXTT2=
EXTT3=
EXTT4=
EXTT5=
EXTT6=
EXTT7=
EXTT8=
EXTT9=
EXTT10=
EXTT11=
EXTT12=
EXTT13=
EXTT14=
PLAYORDER=
